<svg height="512pt" viewBox="-56 0 512 512" width="512pt" xmlns="http://www.w3.org/2000/svg"><path d="m20 0h-12c-4.414062 0-8 3.574219-8 8v496c0 4.425781 3.585938 8 8 8h12zm0 0"/><path d="m115.984375 392.351562 4.015625 4.464844c5.039062 5.617188 12.222656 8.542969 19.769531 7.886719 7.511719-.597656 14.167969-4.574219 18.261719-10.917969l58.792969-91.210937-94.671875 52.769531c-6.410156 3.578125-10.785156 9.785156-11.992188 17.023438-1.207031 7.242187.910156 14.511718 5.824219 19.984374zm12.015625-24.351562h16v16h-16zm0 0"/><path d="m240 192c0-22.054688-17.945312-40-40-40s-40 17.945312-40 40 17.945312 40 40 40 40-17.945312 40-40zm-24-8h16v16h-16zm-24-24h16v16h-16zm-8 40h-16v-16h16zm8 8h16v16h-16zm0 0"/><path d="m392 0h-12v512h12c4.414062 0 8-3.574219 8-8v-496c0-4.425781-3.585938-8-8-8zm0 0"/><path d="m372 0h-344v512h344zm-276 32h48v16h-44.160156l-27.839844 34.808594v21.191406h-16v-24c0-1.824219.617188-3.574219 1.753906-5l32-40c1.519532-1.894531 3.8125-3 6.246094-3zm-48 0h16v16h-16zm184 424c0 2.128906-.839844 4.160156-2.34375 5.65625l-16 16c-1.496094 1.503906-3.535156 2.34375-5.65625 2.34375h-128c-2.121094 0-4.160156-.839844-5.65625-2.34375l-16-16c-1.503906-1.496094-2.34375-3.527344-2.34375-5.65625v-120c0-2.128906.839844-4.160156 2.34375-5.65625l16-16c1.496094-1.503906 3.535156-2.34375 5.65625-2.34375h24v16h-20.6875l-11.3125 11.3125v113.375l11.3125 11.3125h121.375l11.3125-11.3125v-19.390625l-5.769531-17.296875h-26.230469v-16h32c3.449219 0 6.496094 2.199219 7.59375 5.472656l8 24c.269531.816406.40625 1.671875.40625 2.527344zm5-182.984375c3.207031-1.808594 7.222656-1.167969 9.726562 1.511719 2.511719 2.671875 2.882813 6.71875.890626 9.808594l-76.144532 118.121093c-6.816406 10.558594-17.90625 17.191407-30.433594 18.191407-1.09375.09375-2.183593.136718-3.261718.136718-11.335938 0-22-4.738281-29.671875-13.273437l-4.015625-4.464844c-8.179688-9.109375-11.714844-21.246094-9.707032-33.320313 2.007813-12.070312 9.296876-22.40625 19.984376-28.359374zm-93-81.015625c0-30.871094 25.121094-56 56-56s56 25.128906 56 56-25.121094 56-56 56-56-25.128906-56-56zm40 240h16v16h-16zm-16 0v16h-48v-16zm-64 0v16h-16v-16zm240-16h-16v-80h-12.6875l-13.65625 13.65625c-1.496094 1.503906-3.535156 2.34375-5.65625 2.34375h-32v100.6875l11.3125 11.3125h41.375l11.3125-11.3125v-20.6875h16v24c0 2.128906-.839844 4.160156-2.34375 5.65625l-16 16c-1.496094 1.503906-3.535156 2.34375-5.65625 2.34375h-48c-2.121094 0-4.160156-.839844-5.65625-2.34375l-16-16c-1.503906-1.496094-2.34375-3.527344-2.34375-5.65625v-112c0-4.425781 3.585938-8 8-8h36.6875l13.65625-13.65625c1.496094-1.503906 3.535156-2.34375 5.65625-2.34375h24c4.414062 0 8 3.574219 8 8zm-64 0v-16h32v16zm32 16v16h-32v-16zm-32-48v-16h32v16zm-37.648438-54.328125-4.703124-15.296875c54.039062-16.605469 90.351562-65.789062 90.351562-122.375 0-70.574219-57.425781-128-128-128s-128 57.425781-128 128c0 47.320312 25.953125 90.601562 67.71875 112.945312l-7.542969 14.109376c-46.992187-25.144532-76.175781-73.824219-76.175781-127.054688 0-79.398438 64.601562-144 144-144s144 64.601562 144 144c0 63.65625-40.847656 118.984375-101.648438 137.671875zm101.648438-225.671875h-16v-21.191406l-27.839844-34.808594h-44.160156v-16h48c2.433594 0 4.726562 1.105469 6.246094 3l32 40c1.136718 1.425781 1.753906 3.175781 1.753906 5zm8-56h-16v-16h16zm0 0"/></svg>