<svg height="512pt" viewBox="0 -16 512 512" width="512pt" xmlns="http://www.w3.org/2000/svg"><path d="m248 288h16v16h-16zm0 0"/><path d="m192 352h16v16h-16zm0 0"/><path d="m184 288h16v16h-16zm0 0"/><path d="m48 352h32v16h-32zm0 0"/><path d="m120 288h16v16h-16zm0 0"/><path d="m56 288h16v16h-16zm0 0"/><path d="m376 288h16v16h-16zm0 0"/><path d="m440 288h16v16h-16zm0 0"/><path d="m312 288h16v16h-16zm0 0"/><path d="m256 352h16v16h-16zm0 0"/><path d="m320 352h16v16h-16zm0 0"/><path d="m48 416h48v16h-48zm0 0"/><path d="m496 240h-480c-8.824219 0-16 7.175781-16 16v208c0 8.824219 7.175781 16 16 16h480c8.824219 0 16-7.175781 16-16v-208c0-8.824219-7.175781-16-16-16zm-72 48c0-8.824219 7.175781-16 16-16h16c8.824219 0 16 7.175781 16 16v16c0 8.824219-7.175781 16-16 16h-16c-8.824219 0-16-7.175781-16-16zm-64 0c0-8.824219 7.175781-16 16-16h16c8.824219 0 16 7.175781 16 16v16c0 8.824219-7.175781 16-16 16h-16c-8.824219 0-16-7.175781-16-16zm-8 64v16c0 8.824219-7.175781 16-16 16h-16c-8.824219 0-16-7.175781-16-16v-16c0-8.824219 7.175781-16 16-16h16c8.824219 0 16 7.175781 16 16zm-56-64c0-8.824219 7.175781-16 16-16h16c8.824219 0 16 7.175781 16 16v16c0 8.824219-7.175781 16-16 16h-16c-8.824219 0-16-7.175781-16-16zm-8 64v16c0 8.824219-7.175781 16-16 16h-16c-8.824219 0-16-7.175781-16-16v-16c0-8.824219 7.175781-16 16-16h16c8.824219 0 16 7.175781 16 16zm-56-64c0-8.824219 7.175781-16 16-16h16c8.824219 0 16 7.175781 16 16v16c0 8.824219-7.175781 16-16 16h-16c-8.824219 0-16-7.175781-16-16zm-8 64v16c0 8.824219-7.175781 16-16 16h-16c-8.824219 0-16-7.175781-16-16v-16c0-8.824219 7.175781-16 16-16h16c8.824219 0 16 7.175781 16 16zm-56-64c0-8.824219 7.175781-16 16-16h16c8.824219 0 16 7.175781 16 16v16c0 8.824219-7.175781 16-16 16h-16c-8.824219 0-16-7.175781-16-16zm-64 0c0-8.824219 7.175781-16 16-16h16c8.824219 0 16 7.175781 16 16v16c0 8.824219-7.175781 16-16 16h-16c-8.824219 0-16-7.175781-16-16zm-64 0c0-8.824219 7.175781-16 16-16h16c8.824219 0 16 7.175781 16 16v16c0 8.824219-7.175781 16-16 16h-16c-8.824219 0-16-7.175781-16-16zm-8 64c0-8.824219 7.175781-16 16-16h32c8.824219 0 16 7.175781 16 16v16c0 8.824219-7.175781 16-16 16h-32c-8.824219 0-16-7.175781-16-16zm80 80c0 8.824219-7.175781 16-16 16h-48c-8.824219 0-16-7.175781-16-16v-16c0-8.824219 7.175781-16 16-16h48c8.824219 0 16 7.175781 16 16zm0-64v-16c0-8.824219 7.175781-16 16-16h16c8.824219 0 16 7.175781 16 16v16c0 8.824219-7.175781 16-16 16h-16c-8.824219 0-16-7.175781-16-16zm272 64c0 8.824219-7.175781 16-16 16h-224c-8.824219 0-16-7.175781-16-16v-16c0-8.824219 7.175781-16 16-16h224c8.824219 0 16 7.175781 16 16zm96 0c0 8.824219-7.175781 16-16 16h-48c-8.824219 0-16-7.175781-16-16v-16c0-8.824219 7.175781-16 16-16h48c8.824219 0 16 7.175781 16 16zm0-64c0 8.824219-7.175781 16-16 16h-80c-8.824219 0-16-7.175781-16-16v-16c0-8.824219 7.175781-16 16-16h80c8.824219 0 16 7.175781 16 16zm0 0"/><path d="m416 416h48v16h-48zm0 0"/><path d="m128 352h16v16h-16zm0 0"/><path d="m384 352h80v16h-80zm0 0"/><path d="m144 416h224v16h-224zm0 0"/><path d="m416 160h-16v-16h-304c-8.824219 0-16-7.175781-16-16v-32c0-8.824219 7.175781-16 16-16h224v-80h16v80c0 8.824219-7.175781 16-16 16h-224v32h304c8.824219 0 16 7.175781 16 16zm0 0"/><path d="m439.160156 196.425781-8-16c-1.359375-2.714843-4.128906-4.425781-7.160156-4.425781h-32c-3.03125 0-5.800781 1.710938-7.160156 4.425781l-8 16c-.550782 1.101563-.839844 2.335938-.839844 3.574219v16c0 4.414062 3.574219 8 8 8h48c4.425781 0 8-3.585938 8-8v-16c0-1.238281-.289062-2.472656-.839844-3.574219zm0 0"/></svg>