<svg height="512pt" viewBox="0 -48 512 512" width="512pt" xmlns="http://www.w3.org/2000/svg"><path d="m240 224c0 4.417969-3.582031 8-8 8s-8-3.582031-8-8 3.582031-8 8-8 8 3.582031 8 8zm0 0"/><path d="m232 280h16v48h-16zm0 0"/><path d="m432 312h16v16h-16zm0 0"/><path d="m72 280h16v48h-16zm0 0"/><path d="m80 224c0 4.417969-3.582031 8-8 8s-8-3.582031-8-8 3.582031-8 8-8 8 3.582031 8 8zm0 0"/><path d="m96 72h64v64h-64zm0 0"/><path d="m432 280h16v16h-16zm0 0"/><path d="m152 280h16v48h-16zm0 0"/><path d="m288 72h152v16h-152zm0 0"/><path d="m288 40h152v16h-152zm0 0"/><path d="m432 168h16v16h-16zm0 0"/><path d="m288 104h152v16h-152zm0 0"/><path d="m432 200h16v16h-16zm0 0"/><path d="m160 408c0 4.414062 3.574219 8 8 8h80c4.425781 0 8-3.585938 8-8v-24h-96zm0 0"/><path d="m272 384h16v16h-16zm0 0"/><path d="m304 384h16v16h-16zm0 0"/><path d="m336 384h16v16h-16zm0 0"/><path d="m128 384h16v16h-16zm0 0"/><path d="m512 360v-352c0-4.414062-3.585938-8-8-8h-496c-4.414062 0-8 3.585938-8 8v352c0 4.414062 3.585938 8 8 8h496c4.414062 0 8-3.585938 8-8zm-320-72h-8v8h8v16h-8v8h8v16h-8c0 4.414062-3.574219 8-8 8h-32c-4.425781 0-8-3.585938-8-8h-8v-16h8v-8h-8v-16h8v-8h-8v-16h8c0-4.414062 3.574219-8 8-8h32c4.425781 0 8 3.585938 8 8h8zm-80-40v-16h16v16zm32-32h-16v-16h16zm16 16v16h-16v-16zm0-16v-16h16v16zm32 32h-16v-16h16zm8-64h-24v-16h16v-16h16v24c0 4.414062-3.574219 8-8 8zm136 80h-16v-80h-16v128h16v-32h16v40c0 4.414062-3.574219 8-8 8h-8v16h-16v-16h-8c-4.425781 0-8-3.585938-8-8v-144c0-4.414062 3.574219-8 8-8h8v-16h16v16h8c4.425781 0 8 3.585938 8 8zm64 16h-16v64h-16v-64h-16v-16h48zm-16-48v16h-16v-16zm-16-16v-32h16v32zm32-48h-48v-16h48zm64 136v32c0 4.414062-3.574219 8-8 8h-32c-4.425781 0-8-3.585938-8-8v-64c0-4.414062 3.574219-8 8-8h32c4.425781 0 8 3.585938 8 8zm0-112v32c0 4.414062-3.574219 8-8 8h-32c-4.425781 0-8-3.585938-8-8v-64c0-4.414062 3.574219-8 8-8h32c4.425781 0 8 3.585938 8 8zm-200-88h8v-16h-8v-16h8v-16h-8v-16h8v-8c0-4.414062 3.574219-8 8-8h168c4.425781 0 8 3.585938 8 8v8h8v16h-8v16h8v16h-8v16h8v16h-8v8c0 4.414062-3.574219 8-8 8h-168c-4.425781 0-8-3.585938-8-8v-8h-8zm0 168h8v16h-8v8h8v16h-8v8h8v16h-8c0 4.414062-3.574219 8-8 8h-32c-4.425781 0-8-3.585938-8-8h-8v-16h8v-8h-8v-16h8v-8h-8v-16h8c0-4.414062 3.574219-8 8-8h32c4.425781 0 8 3.585938 8 8zm-40-248h16v16h-16zm0 32h16v16h-16zm0 32h16v16h-16zm0 32h16v16h-16zm0 32h16v16h-16zm8 48c13.230469 0 24 10.769531 24 24s-10.769531 24-24 24-24-10.769531-24-24 10.769531-24 24-24zm-56-176h24c4.425781 0 8 3.585938 8 8v24h-16v-16h-16zm-88 32v-16h16v16h16v-16h16v16h16v-16h16v16c4.425781 0 8 3.585938 8 8h16v16h-16v16h16v16h-16v16h16v16h-16c0 4.414062-3.574219 8-8 8v16h-16v-16h-16v16h-16v-16h-16v16h-16v-16c-4.425781 0-8-3.585938-8-8h-16v-16h16v-16h-16v-16h16v-16h-16v-16h16c0-4.414062 3.574219-8 8-8zm-40-24c0-4.414062 3.574219-8 8-8h24v16h-16v16h-16zm0 120h16v16h16v16h-24c-4.425781 0-8-3.585938-8-8zm24 48c13.230469 0 24 10.769531 24 24s-10.769531 24-24 24-24-10.769531-24-24 10.769531-24 24-24zm-24 120h8v-8h-8v-16h8v-8h-8v-16h8c0-4.414062 3.574219-8 8-8h32c4.425781 0 8 3.585938 8 8h8v16h-8v8h8v16h-8v8h8v16h-8c0 4.414062-3.574219 8-8 8h-32c-4.425781 0-8-3.585938-8-8h-8zm0 0"/><path d="m16 408c0 4.414062 3.574219 8 8 8h80c4.425781 0 8-3.585938 8-8v-24h-96zm0 0"/></svg>