<svg height="512pt" viewBox="0 0 512 512" width="512pt" xmlns="http://www.w3.org/2000/svg"><path d="m192 456c0 4.417969-3.582031 8-8 8s-8-3.582031-8-8 3.582031-8 8-8 8 3.582031 8 8zm0 0"/><path d="m371.320312 96-13.664062 13.664062c-1.503906 1.496094-3.535156 2.335938-5.65625 2.335938h-48c-2.121094 0-4.160156-.839844-5.65625-2.34375l-13.664062-13.65625h-188.679688v320h44.6875l13.65625-13.65625c1.496094-1.503906 3.535156-2.34375 5.65625-2.34375h48c2.121094 0 4.160156.839844 5.65625 2.34375l13.65625 13.65625h188.695312l-.007812-320zm-259.320312 16h16v16h-16zm16 288h-16v-16h16zm48-192v-32h16v32zm16 64v16h-16v-16zm0-32h16v16h-16zm8 64h16v32h-16zm8-16v-16h16v16zm0-80v-32h16v32zm16 32h16v16h-16zm8 64h16v32h-16zm8-16v-16h16v16zm0-64v-16h32v16zm24 80h16v32h-16zm8-48v-16h16v16zm16 16h16v16h-16zm48 0v16h-16v-16zm-16-64v-32h16v32zm0 48h-16v-16h16zm-16-48h-16v-32h16zm-8 96h16v32h-16zm72 56c0 4.414062-3.585938 8-8 8h-48v-16h40v-192h-192v192h136v16h-144c-4.414062 0-8-3.585938-8-8v-8h-16v-16h16v-16h-16v-16h16v-16h-16v-16h16v-64h-16v-16h16v-16h-16v-16h16v-8c0-4.414062 3.585938-8 8-8h208c4.414062 0 8 3.585938 8 8v8h16v16h-16v16h16v16h-16v16h16v16h-16v64h16v16h-16v16h16v16h-16zm32 40h-16v-16h16zm0-272h-16v-16h16zm0 0"/><path d="m488 0h-464c-13.230469 0-24 10.769531-24 24v464c0 13.230469 10.769531 24 24 24h464c13.230469 0 24-10.769531 24-24v-464c0-13.230469-10.769531-24-24-24zm-424 288h-16v96h16v16h-24c-4.414062 0-8-3.585938-8-8v-112c0-4.414062 3.585938-8 8-8h24zm0-160h-16v96h16v16h-24c-4.414062 0-8-3.585938-8-8v-112c0-4.414062 3.585938-8 8-8h24zm368 288c0 8.824219-7.175781 16-16 16h-16v32h-16v-32h-32v32h-16v-32h-32v32h-16v-32h-32v32h-16v-32h-16c-2.121094 0-4.160156-.839844-5.65625-2.34375l-13.65625-13.65625h-41.375l-13.65625 13.65625c-1.496094 1.503906-3.535156 2.34375-5.65625 2.34375h-16v16h33.472656c3.3125-9.289062 12.113282-16 22.527344-16 13.230469 0 24 10.769531 24 24s-10.769531 24-24 24c-10.414062 0-19.214844-6.710938-22.527344-16h-41.472656c-4.414062 0-8-3.585938-8-8v-24h-16c-8.824219 0-16-7.175781-16-16v-320c0-8.824219 7.175781-16 16-16h16v-32h16v32h32v-32h16v32h32v-32h16v32h32v-32h16v32h16c2.121094 0 4.160156.839844 5.65625 2.34375l13.65625 13.65625h41.367188l13.664062-13.664062c1.503906-1.496094 3.535156-2.335938 5.65625-2.335938h16v-16h-33.472656c-3.3125 9.289062-12.113282 16-22.527344 16-13.230469 0-24-10.769531-24-24s10.769531-24 24-24c10.414062 0 19.214844 6.710938 22.527344 16h41.472656c4.414062 0 8 3.585938 8 8v24h16c8.824219 0 16 7.175781 16 16zm48-24c0 4.414062-3.585938 8-8 8h-24v-16h16v-96h-16v-16h24c4.414062 0 8 3.585938 8 8zm0-160c0 4.414062-3.585938 8-8 8h-24v-16h16v-96h-16v-16h24c4.414062 0 8 3.585938 8 8zm0 0"/><path d="m336 56c0 4.417969-3.582031 8-8 8s-8-3.582031-8-8 3.582031-8 8-8 8 3.582031 8 8zm0 0"/></svg>