<svg height="512pt" viewBox="0 -16 512 512" width="512pt" xmlns="http://www.w3.org/2000/svg"><path d="m512 272v-256c0-8.824219-7.175781-16-16-16h-480c-8.824219 0-16 7.175781-16 16v256zm-72-40h24v-24h16v32c0 4.414062-3.585938 8-8 8h-32zm-408-192c0-4.414062 3.585938-8 8-8h32v16h-24v24h-16zm0 0"/><path d="m0 288v48c0 8.824219 7.175781 16 16 16h480c8.824219 0 16-7.175781 16-16v-48zm272 32h-32v-16h32zm160 8h-16v-16h16zm32 0h-16v-16h16zm0 0"/><path d="m329.464844 408-9.777344-34.199219c-.976562-3.433593-4.121094-5.800781-7.6875-5.800781h-112c-3.566406 0-6.710938 2.367188-7.6875 5.800781l-9.777344 34.199219zm0 0"/><path d="m386.199219 440.3125-51.726563-14.785156h-156.945312l-51.726563 14.785156c-3.433593.976562-5.800781 4.121094-5.800781 7.6875v24c0 4.414062 3.585938 8 8 8h256c4.414062 0 8-3.585938 8-8v-24c0-3.566406-2.367188-6.710938-5.800781-7.6875zm0 0"/></svg>