<svg height="512pt" viewBox="0 0 512 512" width="512pt" xmlns="http://www.w3.org/2000/svg"><path d="m400 96v-80c0-8.824219-7.175781-16-16-16h-256c-8.824219 0-16 7.175781-16 16v80c0 8.824219 7.175781 16 16 16v16c-8.824219 0-16 7.175781-16 16v80c0 8.824219 7.175781 16 16 16v16c-8.824219 0-16 7.175781-16 16v80c0 8.824219 7.175781 16 16 16v16c-8.824219 0-16 7.175781-16 16v80c0 8.824219 7.175781 16 16 16v16h16v-16h224v16h16v-16c8.824219 0 16-7.175781 16-16v-80c0-8.824219-7.175781-16-16-16v-16c8.824219 0 16-7.175781 16-16v-80c0-8.824219-7.175781-16-16-16v-16c8.824219 0 16-7.175781 16-16v-80c0-8.824219-7.175781-16-16-16v-16c8.824219 0 16-7.175781 16-16zm-80-64h16v16h-16zm0 32h16v16h-16zm-32-32h16v16h-16zm0 32h16v16h-16zm-32-32h16v16h-16zm0 32h16v16h-16zm-32-32h16v16h-16zm0 32h16v16h-16zm-80-16c0-8.824219 7.175781-16 16-16h32c8.824219 0 16 7.175781 16 16v16c0 8.824219-7.175781 16-16 16h-32c-8.824219 0-16-7.175781-16-16zm0 128c0-8.824219 7.175781-16 16-16h32c8.824219 0 16 7.175781 16 16v16c0 8.824219-7.175781 16-16 16h-32c-8.824219 0-16-7.175781-16-16zm0 128c0-8.824219 7.175781-16 16-16h32c8.824219 0 16 7.175781 16 16v16c0 8.824219-7.175781 16-16 16h-32c-8.824219 0-16-7.175781-16-16zm64 144c0 8.824219-7.175781 16-16 16h-32c-8.824219 0-16-7.175781-16-16v-16c0-8.824219 7.175781-16 16-16h32c8.824219 0 16 7.175781 16 16zm32 16h-16v-16h16zm0-32h-16v-16h16zm32 32h-16v-48h16zm32 0h-16v-16h16zm0-32h-16v-16h16zm32 32h-16v-48h16zm32 0h-16v-16h16zm0-32h-16v-16h16zm0-48h-224v-16h224zm-128-64v16h-16v-16zm-16-16v-16h16v16zm48 16v16h-16v-16zm-16-16v-16h16v16zm48 16v16h-16v-16zm-16-16v-16h16v16zm48 16v16h-16v-16zm-16-16v-16h16v16zm48 32h-16v-16h16zm0-32h-16v-16h16zm0-48h-224v-16h224zm-128-64v16h-16v-16zm-16-16v-16h16v16zm32 32v-48h16v48zm48-16v16h-16v-16zm-16-16v-16h16v16zm32 32v-48h16v48zm48 0h-16v-16h16zm0-32h-16v-16h16zm0-48h-224v-16h224zm0-48h-16v-16h16zm0-32h-16v-16h16zm0 0"/><path d="m160 48h32.007812v16h-32.007812zm0 0"/><path d="m160 304h32.007812v16h-32.007812zm0 0"/><path d="m160 176h32.007812v16h-32.007812zm0 0"/><path d="m160 432h32.007812v16h-32.007812zm0 0"/><path d="m488 232c-10.414062 0-19.214844 6.710938-22.527344 16h-49.472656v16h49.472656c3.3125 9.289062 12.113282 16 22.527344 16 13.230469 0 24-10.769531 24-24s-10.769531-24-24-24zm0 32c-4.414062 0-8-3.585938-8-8s3.585938-8 8-8 8 3.585938 8 8-3.585938 8-8 8zm0 0"/><path d="m480 176v-89.472656c9.289062-3.3125 16-12.113282 16-22.527344 0-13.230469-10.769531-24-24-24s-24 10.769531-24 24c0 10.414062 6.710938 19.214844 16 22.527344v81.472656h-48v16h56c4.425781 0 8-3.574219 8-8zm-8-120c4.414062 0 8 3.585938 8 8s-3.585938 8-8 8-8-3.585938-8-8 3.585938-8 8-8zm0 0"/><path d="m480 425.472656v-89.472656c0-4.425781-3.574219-8-8-8h-56v16h48v81.472656c-9.289062 3.3125-16 12.113282-16 22.527344 0 13.230469 10.769531 24 24 24s24-10.769531 24-24c0-10.414062-6.710938-19.214844-16-22.527344zm-8 30.527344c-4.414062 0-8-3.585938-8-8s3.585938-8 8-8 8 3.585938 8 8-3.585938 8-8 8zm0 0"/><path d="m24 232c-13.230469 0-24 10.769531-24 24s10.769531 24 24 24c10.414062 0 19.214844-6.710938 22.527344-16h49.472656v-16h-49.472656c-3.3125-9.289062-12.113282-16-22.527344-16zm0 32c-4.414062 0-8-3.585938-8-8s3.585938-8 8-8 8 3.585938 8 8-3.585938 8-8 8zm0 0"/><path d="m48 86.527344c9.289062-3.3125 16-12.113282 16-22.527344 0-13.230469-10.769531-24-24-24s-24 10.769531-24 24c0 10.414062 6.710938 19.214844 16 22.527344v89.472656c0 4.425781 3.574219 8 8 8h56v-16h-48zm-8-30.527344c4.414062 0 8 3.585938 8 8s-3.585938 8-8 8-8-3.585938-8-8 3.585938-8 8-8zm0 0"/><path d="m32 336v89.472656c-9.289062 3.3125-16 12.113282-16 22.527344 0 13.230469 10.769531 24 24 24s24-10.769531 24-24c0-10.414062-6.710938-19.214844-16-22.527344v-81.472656h48v-16h-56c-4.425781 0-8 3.574219-8 8zm8 120c-4.414062 0-8-3.585938-8-8s3.585938-8 8-8 8 3.585938 8 8-3.585938 8-8 8zm0 0"/></svg>